<?xml version="1.0" encoding="utf-8"?>
<!-- Generator: Adobe Illustrator 26.0.3, SVG Export Plug-In . SVG Version: 6.00 Build 0)  -->
<svg version="1.1" id="Слой_1" xmlns="http://www.w3.org/2000/svg" xmlns:xlink="http://www.w3.org/1999/xlink" x="0px" y="0px"
	 viewBox="0 0 595.3 661.2" style="enable-background:new 0 0 595.3 661.2;" xml:space="preserve">
<style type="text/css">
	.st0{fill:#4ADE80;}
	.st1{fill:#111827;}
</style>
<path class="st0" d="M402.3,335.5c32-4.4,34.8-7,34.8-31.3c0.1-46.4-0.6-92.7,0.4-139c0.3-15-5.3-22.4-21-28
	C348.7,113,281.4,87.5,214,62.3c-6.1-2.2-11.8-5.1-22.9-10c19.8-7.7,36.2-12.3,50.5-20.1c36.7-19.9,72.4-19.9,109.3-0.6
	c14.7,7.7,31.2,12.6,52.4,20.9L328.6,82c16.4,10.3,30.8,15.7,47.4,5.8c43.4-25.8,84.4-18.2,129.6,0.3c30.9,12.7,39.6,26.5,39.2,55.9
	c-2,142.7-1,285.3-1.2,428c0,54.1-23.9,75.5-84,75.5c-110.7,0-221.3,0-332,0c-51.1-0.1-76.6-23-76.7-68.9
	c-0.1-151.1,0.2-302.2-0.4-453.3c-0.1-15.5,4.5-24.2,21.4-29.5c24-7.4,46.9-17.9,70.9-25.5c7.9-2.5,18.7-2.4,26.4,0.4
	c72.1,26.2,143.7,53.5,215.7,79.7c13.7,5,17.7,12.1,17.5,24.5c-0.6,46.9-0.2,93.9-0.2,140.9L402.3,335.5z M192.2,336.7v-21
	c0-46.9,0.5-93.7-0.3-140.5c-0.2-13.6,4.8-20.9,18.9-25.4c18.5-5.9,36.4-13.4,57.1-21.1c-18.4-11.5-33.6-14.9-51.4-6.6
	c-13.2,6-26.8,11.1-40.7,15.2c-14.3,4.3-19.2,12.2-19,25.6c0.7,46.2,0.2,92.5,0.2,138.8C157,328.5,158.1,329.7,192.2,336.7
	L192.2,336.7z"/>
<path class="st1" d="M174.1,431.7h-46.9v20h46.9v29.7H114c-2.3,0-4.6-0.6-6.7-1.8c-2.1-1.2-4-2.7-5.5-4.6c-1.6-1.9-2.9-4.1-3.8-6.4
	c-0.9-2.3-1.4-4.8-1.4-7.2v-39.3c0-2.5,0.5-5,1.4-7.3c0.9-2.4,2.2-4.5,3.8-6.5c1.5-1.9,3.4-3.4,5.5-4.6c2-1.2,4.3-1.8,6.7-1.8h60.1
	L174.1,431.7z M125.5,430.1h46.8v-26.5H114c-2.1,0-4.1,0.6-5.9,1.6c-1.9,1.1-3.6,2.5-5,4.2c-1.5,1.8-2.6,3.8-3.4,5.9
	c-0.8,2.1-1.3,4.4-1.3,6.7v39.3c0,2.3,0.4,4.5,1.3,6.6c0.8,2.1,2,4.1,3.4,5.8c1.4,1.7,3.1,3.1,5,4.2c1.8,1.1,3.9,1.6,5.9,1.6h58.3
	v-26.2h-46.8L125.5,430.1z M169.6,427.2H101v-5.1c0-1.9,0.4-3.9,1.1-5.7c0.7-1.8,1.6-3.5,2.8-5.1c1.1-1.5,2.5-2.7,4.1-3.6
	c1.5-0.9,3.2-1.4,4.9-1.4h55.6L169.6,427.2z M169.6,476.9H114c-1.7,0-3.4-0.5-4.9-1.4c-1.6-0.9-3-2.1-4.1-3.6
	c-1.2-1.5-2.1-3.2-2.8-5c-0.7-1.8-1.1-3.7-1.1-5.6v-30.1h21.7v24.8h46.9L169.6,476.9z"/>
<path class="st1" d="M192.2,431.6l1.5-4.6l8-25.1h38.5l25,79.5h-32.6l-7.8-25.1h-8l-7.6,25.1h-32.5L192.2,431.6z M194.4,430.1
	l-15.7,49.5H208l7.6-25h10.4l7.8,25h29l-24-76h-36.1l-8.4,26.5L194.4,430.1z M182.7,476.9l14.2-45.6h25.8l-0.9-4h-23.6l6.8-20.9h32
	l22.1,70.6h-23.2l-7.8-25h-14.4l-7.6,25H182.7z"/>
<path class="st1" d="M320,481.4l-4.3-3.4c-0.8-3.5-1.7-6.9-2.8-10.1c-1.1-3.3-2.4-6.5-4-9.6c-0.6-1.3-2.2-2-4.9-2h-5.5v25.1h-30.9
	v-49.7h-5.8l7-29.8h60.1c2.4,0,4.7,0.6,6.8,1.8c2.2,1.2,4.1,2.7,5.7,4.6c1.6,1.9,2.9,4.1,3.8,6.4c0.9,2.3,1.4,4.7,1.4,7.2v14.3
	c0,1.1-0.1,2.2-0.4,3.3c-0.3,1.3-0.7,2.6-1.1,3.9c-0.5,1.4-1.1,2.7-1.8,4c-0.7,1.2-1.5,2.4-2.4,3.5c2,4.4,3.4,8.9,4.5,13.6
	c1.2,5.2,2.2,10.9,3,17.1L320,481.4z M317.4,477.3l2.8,2.3h25.9c-0.7-5.4-1.6-10.8-2.8-16.1c-1-4.6-2.5-9.1-4.5-13.4
	c1-0.9,1.8-1.9,2.5-3c0.8-1.2,1.4-2.5,2-3.8c0.5-1.2,0.9-2.5,1.2-3.8c0.3-1.1,0.4-2.2,0.4-3.3v-14.4c0-2.3-0.5-4.5-1.4-6.6
	c-0.9-2.1-2.1-4.1-3.6-5.8c-1.5-1.7-3.2-3.1-5.1-4.2c-1.8-1.1-3.9-1.6-6-1.6h-58.8l-6.2,26.5h5.4v49.5h27.5v-25h7.1
	c3.5,0,5.7,1,6.5,3c1.6,3.2,3,6.5,4,9.9c1,3.2,1.9,6.5,2.8,9.9L317.4,477.3z M320.1,476.9l-0.1-0.1c-0.9-3.6-1.9-7.1-2.9-10.5
	c-1.1-3.5-2.4-6.8-4-10.1c-1.3-2.9-4.4-4.3-9-4.3h-10v25h-22v-45.6h48.1v-4h-52.6l4.9-20.9h56.6c1.8,0,3.5,0.5,5.1,1.4
	c1.6,0.9,3,2.1,4.2,3.6c1.2,1.5,2.2,3.2,2.9,5c0.7,1.8,1.1,3.7,1.1,5.6v14.3c0,1.2-0.2,2.4-0.5,3.6c-0.3,1.4-0.8,2.7-1.4,4
	c-0.6,1.3-1.3,2.5-2.2,3.5c-0.7,1-1.8,1.6-3,1.8c2.2,4.1,4,8.4,5.2,12.9c1.3,4.9,2.3,9.9,2.8,14.9H320.1z"/>
<path class="st1" d="M431.4,481.4h-60.8c-2.3,0-4.6-0.6-6.7-1.8c-2.1-1.2-4-2.7-5.6-4.6c-1.6-1.9-2.9-4.1-3.9-6.4
	c-0.9-2.3-1.4-4.8-1.4-7.2v-39.3c0-2.5,0.5-5,1.4-7.3c0.9-2.4,2.2-4.6,3.9-6.5c1.6-1.9,3.5-3.4,5.6-4.6c2-1.2,4.3-1.8,6.7-1.8h60.8
	V481.4z M370.6,479.6h59v-76h-59c-2.1,0-4.1,0.6-5.9,1.6c-1.9,1.1-3.6,2.5-5.1,4.2c-1.5,1.8-2.7,3.8-3.5,5.9
	c-0.8,2.1-1.3,4.4-1.3,6.7v39.3c0,2.3,0.4,4.5,1.3,6.6c0.8,2.1,2,4.1,3.5,5.8c1.4,1.7,3.2,3.1,5.1,4.2
	C366.5,479.1,368.6,479.6,370.6,479.6L370.6,479.6z M426.9,427.2h-69.4v-5.1c0-1.9,0.4-3.9,1.1-5.7c0.7-1.8,1.6-3.5,2.8-5.1
	c1.1-1.5,2.5-2.7,4.1-3.6c1.5-0.9,3.3-1.4,5.1-1.4h56.3L426.9,427.2z M426.9,476.9h-56.3c-1.8,0-3.5-0.5-5.1-1.4
	c-1.6-0.9-3-2.1-4.1-3.6c-1.2-1.5-2.1-3.2-2.8-5c-0.7-1.8-1.1-3.7-1.1-5.6v-30.1h21.7V456h25.9v-4h-15.9v-20.7h37.7L426.9,476.9z
	 M382.1,453.2v-23.1h4.5v23.1L382.1,453.2z M383.7,431.7v19.9h1.1v-19.8L383.7,431.7z"/>
<path class="st1" d="M505.7,403.6c2.1,1.2,4,2.7,5.6,4.6c1.6,1.9,2.9,4.1,3.8,6.4c0.9,2.3,1.4,4.7,1.4,7.2v39.3c0,2.5-0.5,5-1.4,7.3
	c-0.9,2.4-2.2,4.6-3.8,6.5c-1.6,1.9-3.5,3.4-5.6,4.7c-2.1,1.2-4.4,1.8-6.8,1.8h-43.5c-2.3,0-4.7-0.6-6.7-1.8c-2.1-1.2-4-2.8-5.6-4.7
	c-1.6-1.9-2.9-4.1-3.9-6.5c-0.9-2.3-1.4-4.8-1.4-7.3v-39.3c0-2.5,0.5-4.9,1.4-7.2c0.9-2.3,2.2-4.5,3.9-6.4c1.6-1.9,3.5-3.4,5.6-4.6
	c2-1.2,4.3-1.8,6.7-1.8h43.5C501.3,401.8,503.6,402.4,505.7,403.6z M449.5,405.2c-1.9,1.1-3.6,2.5-5.1,4.2c-1.5,1.7-2.7,3.7-3.5,5.8
	c-0.8,2.1-1.3,4.3-1.3,6.6v39.3c0,2.3,0.4,4.6,1.3,6.7c0.8,2.2,2,4.2,3.5,5.9c1.4,1.7,3.1,3.1,5.1,4.2c1.8,1.1,3.9,1.6,5.9,1.6h43.5
	c2.1,0,4.2-0.6,6-1.6c2-1.1,3.7-2.5,5.1-4.2c1.5-1.8,2.7-3.8,3.5-5.9c0.8-2.1,1.3-4.4,1.3-6.7v-39.3c0-2.3-0.4-4.5-1.3-6.6
	c-0.8-2.1-2-4.1-3.5-5.8c-1.5-1.7-3.2-3.1-5.1-4.2c-1.8-1.1-3.9-1.6-6-1.6h-43.5C453.3,403.6,451.3,404.2,449.5,405.2L449.5,405.2z
	 M504,407.7c1.6,0.9,3,2.1,4.2,3.6c1.2,1.5,2.2,3.2,2.9,5c0.7,1.8,1.1,3.7,1.1,5.6v39.3c0,1.9-0.4,3.9-1.1,5.7
	c-0.7,1.8-1.7,3.5-2.9,5.1c-1.2,1.4-2.6,2.7-4.2,3.6c-1.5,0.9-3.3,1.4-5.1,1.4h-43.5c-1.8,0-3.5-0.5-5.1-1.4c-1.6-1-3-2.2-4.1-3.6
	c-1.2-1.5-2.1-3.2-2.8-5.1c-0.7-1.8-1.1-3.7-1.1-5.7V456h48.1v-28.9h-26.3v24.8h-21.7v-30.1c0-1.9,0.4-3.8,1.1-5.6
	c0.7-1.8,1.6-3.5,2.8-5c1.1-1.4,2.5-2.7,4.1-3.6c1.5-0.9,3.3-1.4,5.1-1.4h43.5C500.7,406.3,502.5,406.8,504,407.7z M487.6,429.8
	v23.4h-20.7v-23.4H487.6z M486,451.5v-20h-17.5v20H486z"/>
<path class="st1" d="M155.7,520.3h-36.5v15.5h36.5V559H109c-1.8,0-3.6-0.5-5.2-1.4c-1.6-0.9-3.1-2.1-4.3-3.6c-1.2-1.5-2.2-3.2-2.9-5
	c-0.7-1.8-1.1-3.7-1.1-5.6v-30.6c0-1.9,0.4-3.9,1.1-5.7c0.7-1.8,1.7-3.5,2.9-5c1.2-1.5,2.7-2.7,4.3-3.6c1.6-0.9,3.4-1.4,5.2-1.4
	h46.7L155.7,520.3z M117.9,519.1h36.4v-20.6H109c-1.6,0-3.2,0.4-4.6,1.3c-1.5,0.9-2.8,2-3.9,3.3c-1.1,1.4-2,2.9-2.7,4.6
	c-0.7,1.7-1,3.4-1,5.2v30.6c0,1.8,0.3,3.5,1,5.1c0.6,1.6,1.5,3.2,2.7,4.5c1.1,1.3,2.4,2.4,3.9,3.2c1.4,0.8,3,1.3,4.6,1.3h45.4v-20.4
	h-36.5L117.9,519.1z M152.2,516.9H98.9v-4c0-1.5,0.3-3,0.8-4.4c0.5-1.4,1.3-2.7,2.2-3.9c0.9-1.1,2-2.1,3.2-2.8
	c1.1-0.7,2.5-1.1,3.8-1.1h43.3V516.9z M152.2,555.5H109c-1.3,0-2.7-0.3-3.8-1c-1.2-0.7-2.3-1.7-3.2-2.8c-0.9-1.2-1.7-2.5-2.2-3.9
	c-0.6-1.4-0.8-2.9-0.8-4.3V520h16.9v19.3h36.4L152.2,555.5z"/>
<path class="st1" d="M169.2,557.6c-1.7-0.9-3.1-2.1-4.4-3.6c-1.3-1.5-2.3-3.2-3-5c-0.7-1.8-1.1-3.7-1.1-5.6v-30.5
	c0-1.9,0.4-3.9,1.1-5.7c0.7-1.8,1.7-3.5,3-5c1.2-1.4,2.7-2.7,4.4-3.6c1.6-0.9,3.4-1.4,5.2-1.4h33.8c1.9,0,3.7,0.5,5.3,1.4
	c1.7,0.9,3.1,2.2,4.4,3.6c1.3,1.5,2.3,3.2,3,5c0.7,1.8,1.1,3.7,1.1,5.7v30.6c0,1.9-0.4,3.8-1.1,5.6c-0.7,1.8-1.7,3.5-3,5
	c-1.2,1.4-2.7,2.7-4.4,3.6c-1.6,0.9-3.4,1.4-5.3,1.4h-33.8C172.6,559,170.8,558.5,169.2,557.6z M212.9,556.4c1.5-0.8,2.9-1.9,4-3.2
	c1.2-1.3,2.1-2.9,2.7-4.5c0.7-1.6,1-3.4,1-5.1v-30.6c0-1.8-0.3-3.5-1-5.2c-0.6-1.7-1.6-3.2-2.7-4.6c-1.1-1.3-2.5-2.5-4-3.3
	c-1.4-0.8-3-1.3-4.7-1.3h-33.8c-1.6,0-3.2,0.4-4.6,1.3c-1.5,0.9-2.8,2-3.9,3.3c-1.2,1.4-2.1,2.9-2.7,4.6c-0.7,1.7-1,3.4-1,5.2v30.6
	c0,1.8,0.3,3.5,1,5.1c0.6,1.7,1.6,3.2,2.7,4.5c1.1,1.3,2.5,2.4,3.9,3.2c1.4,0.8,3,1.3,4.6,1.3h33.8
	C209.8,557.6,211.5,557.2,212.9,556.4z M170.4,554.5c-1.2-0.7-2.3-1.7-3.2-2.8c-0.9-1.2-1.7-2.5-2.2-3.9c-0.6-1.4-0.8-2.9-0.8-4.3
	V520h16.9v19.3h20.5v-22.4h-37.4v-4c0-1.5,0.3-3,0.8-4.4c0.5-1.4,1.3-2.7,2.2-3.9c0.9-1.1,2-2.1,3.2-2.8c1.2-0.7,2.6-1.1,3.9-1.1
	h33.8c1.4,0,2.8,0.4,3.9,1.1c1.2,0.7,2.3,1.7,3.2,2.8c1,1.2,1.7,2.5,2.3,3.9c0.5,1.4,0.8,2.9,0.8,4.4v30.6c0,1.5-0.3,3-0.8,4.3
	c-0.5,1.4-1.3,2.7-2.3,3.9c-0.9,1.1-2,2.1-3.2,2.8c-1.2,0.7-2.6,1-3.9,1h-33.8C173,555.5,171.6,555.1,170.4,554.5z M199.4,519.1
	v18.2h-16.1v-18.2L199.4,519.1z M198.1,535.9v-15.5h-13.6v15.5L198.1,535.9z"/>
<path class="st1" d="M250.8,497.1v38.7h13.2v-38.7h23.8v46.3c0,1.9-0.4,3.8-1.1,5.6c-0.7,1.8-1.7,3.5-3,5c-1.2,1.4-2.7,2.6-4.4,3.6
	c-1.6,0.9-3.4,1.4-5.2,1.4h-33.6c-1.8,0-3.6-0.5-5.2-1.4c-1.7-0.9-3.1-2.2-4.4-3.6c-1.3-1.5-2.3-3.2-3-5c-0.7-1.8-1.1-3.7-1.1-5.7
	v-46.2H250.8z M249.6,498.5h-21.2v44.7c0,1.8,0.3,3.5,1,5.2c0.6,1.7,1.6,3.2,2.7,4.6c1.1,1.3,2.4,2.4,3.9,3.3c1.4,0.8,3,1.3,4.6,1.3
	h33.6c1.6,0,3.3-0.4,4.7-1.3c1.5-0.8,2.8-1.9,3.9-3.2c1.1-1.4,2-2.9,2.7-4.5c0.7-1.6,1-3.4,1-5.1v-45h-21.1V537h-15.9V498.5z
	 M267.6,539.2v-38.6h16.9v42.9c0,1.5-0.3,3-0.8,4.3c-0.5,1.4-1.3,2.7-2.2,3.9c-0.9,1.1-2,2.1-3.3,2.8c-1.2,0.7-2.5,1-3.9,1h-33.7
	c-1.4,0-2.8-0.4-3.9-1.1c-1.2-0.7-2.3-1.7-3.2-2.8c-0.9-1.2-1.7-2.5-2.2-3.9c-0.5-1.4-0.8-2.9-0.8-4.4v-4L267.6,539.2z M247.4,500.6
	v35.5h-16.9v-35.5H247.4z"/>
<path class="st1" d="M333.6,559l-3.4-2.6c-0.6-2.7-1.4-5.4-2.4-8.1c-0.8-2.5-1.8-4.9-3-7.2c-0.5-1-1.8-1.6-3.8-1.6h-4.2V559H293
	v-61.9h47.3c1.9,0,3.7,0.5,5.3,1.4c1.7,0.9,3.1,2.1,4.4,3.6c1.3,1.5,2.3,3.2,3,5c0.7,1.8,1.1,3.7,1.1,5.6v11.1
	c0,0.9-0.1,1.7-0.3,2.6c-0.2,1-0.5,2-0.9,3c-0.4,1.1-0.9,2.1-1.4,3.1c-0.5,1-1.1,1.9-1.9,2.7c1.5,3.4,2.7,6.9,3.5,10.5
	c0.9,4,1.7,8.4,2.3,13.3L333.6,559z M331.6,555.8l2.2,1.8h19.9c-0.5-4.2-1.3-8.4-2.2-12.5c-0.8-3.6-2-7.1-3.5-10.5
	c0.7-0.7,1.4-1.5,1.9-2.4c0.6-0.9,1-1.9,1.5-2.9c0.4-0.9,0.8-1.9,1-2.9c0.2-0.8,0.3-1.7,0.3-2.6v-11.1c0-1.8-0.3-3.5-1-5.1
	c-0.7-1.6-1.6-3.2-2.7-4.5c-1.1-1.3-2.5-2.4-4-3.2c-1.4-0.8-3-1.3-4.7-1.3h-45.9v59.1h21.2v-19.4h5.6c2.7,0,4.3,0.8,5,2.3
	c1.2,2.4,2.2,4.9,3,7.5C330,550.7,330.8,553.4,331.6,555.8L331.6,555.8z M333.7,555.5l-0.1-0.1c-0.7-2.8-1.5-5.6-2.5-8.4
	c-1-2.8-2-5.3-3-7.6s-3.4-3.4-6.9-3.4h-7.7v19.4h-17V520h37.1v-3.2h-37.1v-16.2h43.8c1.4,0,2.7,0.3,3.9,1c1.2,0.7,2.4,1.7,3.3,2.8
	c1,1.2,1.7,2.5,2.3,3.9c0.5,1.4,0.8,2.9,0.8,4.3v11.1c0,0.9-0.1,1.9-0.4,2.8c-0.2,1.1-0.6,2.1-1,3.2c-0.4,1-1,1.9-1.7,2.7
	c-0.6,0.7-1.4,1.2-2.3,1.4c1.7,3.2,2.9,6.5,3.8,10c1,3.8,1.7,7.7,2.3,11.6L333.7,555.5z"/>
<path class="st1" d="M359,559v-61.9h23.8V559H359z M381.6,557.6v-59.1h-21.2v59.1L381.6,557.6z M362.5,555.5v-54.9h16.9v54.9
	L362.5,555.5z"/>
<path class="st1" d="M448.1,559h-60.3v-61.9h60.3V559z M389.1,498.5v59.1h57.6v-59.1H389.1z M444.6,516.9h-53.4v-16.3h53.4V516.9z
	 M444.6,520v16.1h-36.4v3.2h36.5v16.3h-53.4V520L444.6,520z"/>
<path class="st1" d="M493.8,559l-3.4-2.6c-0.7-2.7-1.4-5.4-2.4-8.1c-0.8-2.5-1.8-4.9-3-7.2c-0.5-1-1.8-1.6-3.8-1.6h-4.2V559h-23.9
	v-61.9h47.3c1.9,0,3.7,0.5,5.3,1.4c1.7,0.9,3.1,2.1,4.4,3.6c1.3,1.5,2.3,3.2,3,5c0.7,1.8,1.1,3.7,1.1,5.6v11.1
	c0,0.9-0.1,1.7-0.3,2.6c-0.2,1-0.5,2-0.9,3c-0.4,1.1-0.9,2.1-1.4,3.1c-0.5,1-1.2,1.9-1.9,2.7c1.5,3.4,2.7,6.9,3.5,10.5
	c0.9,4,1.7,8.4,2.3,13.3L493.8,559z M491.8,555.8l2.2,1.8h19.9c-0.5-4.2-1.3-8.4-2.2-12.5c-0.8-3.6-2-7.1-3.5-10.5
	c0.7-0.7,1.4-1.5,1.9-2.4c0.6-0.9,1.1-1.9,1.5-2.9c0.4-1,0.7-1.9,0.9-2.9c0.2-0.8,0.3-1.7,0.3-2.6v-11.2c0-1.8-0.3-3.5-1-5.1
	c-0.7-1.7-1.6-3.2-2.8-4.5c-1.1-1.3-2.5-2.4-4-3.2c-1.4-0.8-3-1.3-4.7-1.3h-45.8v59.1h21.2v-19.4h5.6c2.7,0,4.3,0.8,5,2.3
	c1.2,2.4,2.2,4.9,3,7.5C490.2,550.7,491,553.4,491.8,555.8L491.8,555.8z M493.9,555.5l-0.1-0.1c-0.7-2.8-1.5-5.6-2.5-8.4
	c-0.9-2.6-1.9-5.1-3-7.6c-1-2.2-3.4-3.4-6.9-3.4h-7.7v19.4h-17V520h37.1v-3.2h-37.1v-16.2h43.8c1.4,0,2.7,0.3,3.9,1
	c1.2,0.7,2.4,1.7,3.3,2.8c1,1.2,1.7,2.5,2.3,3.9c0.6,1.4,0.8,2.9,0.8,4.3v11.1c0,0.9-0.1,1.9-0.4,2.8c-0.2,1.1-0.6,2.1-1,3.2
	c-0.4,1-1,1.9-1.7,2.7c-0.6,0.7-1.4,1.2-2.3,1.4c1.7,3.2,2.9,6.5,3.8,10c1,3.8,1.7,7.7,2.3,11.6L493.9,555.5z"/>
</svg>
