<svg id="Слой_1" data-name="Слой 1" xmlns="http://www.w3.org/2000/svg" viewBox="0 0 595.28 661.15"><defs><style>.cls-1{fill:#fff;}</style></defs><path d="M402.33,335.54c32-4.41,34.82-7,34.84-31.26.06-46.35-.59-92.72.4-139,.32-15-5.3-22.41-21-28-67.84-24.29-135.13-49.81-202.58-75-6.05-2.25-11.8-5.13-22.91-10,19.75-7.71,36.18-12.32,50.5-20.07,36.74-19.89,72.36-19.94,109.32-.62,14.68,7.68,31.18,12.55,52.35,20.85L328.59,82C345,92.3,359.41,97.68,376,87.84c43.44-25.76,84.43-18.18,129.6.33,30.9,12.65,39.57,26.5,39.16,55.87-2,142.65-1,285.33-1.17,428-.05,54.08-23.93,75.52-84,75.52q-166,0-332,0Q51,647.48,50.9,578.7c-.07-151.1.21-302.2-.4-453.3-.06-15.49,4.51-24.22,21.44-29.47,24-7.45,46.92-17.88,70.91-25.47,7.87-2.49,18.69-2.36,26.42.44C241.36,97.07,312.92,124.41,385,150.57c13.67,5,17.66,12.06,17.52,24.46-.56,46.95-.22,93.91-.21,140.87Zm-210.17,1.18v-21c0-46.85.52-93.71-.34-140.54-.25-13.59,4.84-20.87,18.94-25.37,18.53-5.91,36.44-13.37,57.11-21.11-18.39-11.5-33.6-14.93-51.41-6.55a299.6,299.6,0,0,1-40.74,15.16c-14.29,4.32-19.21,12.2-19,25.59.68,46.25.22,92.5.24,138.75C157,328.5,158.11,329.71,192.16,336.72Z"/><path class="cls-1" d="M174.07,431.69H127.22v20h46.85v29.7H114a13.64,13.64,0,0,1-6.69-1.75,19.32,19.32,0,0,1-5.53-4.59A23.22,23.22,0,0,1,98,468.62a19.43,19.43,0,0,1-1.42-7.23V422.1A19.89,19.89,0,0,1,98,414.81a22.89,22.89,0,0,1,3.78-6.48,20.21,20.21,0,0,1,5.53-4.65,13.22,13.22,0,0,1,6.69-1.83h60.08Zm-48.61-1.62h46.85V403.61H114a11.8,11.8,0,0,0-5.94,1.62,18,18,0,0,0-5,4.25,21.62,21.62,0,0,0-3.44,5.94,18.25,18.25,0,0,0-1.28,6.68v39.29A17.75,17.75,0,0,0,99.61,468a20.7,20.7,0,0,0,3.44,5.8,18.52,18.52,0,0,0,5,4.19,11.8,11.8,0,0,0,5.94,1.62h58.32V453.43H125.46Zm44.15-2.83H101V422.1a15.83,15.83,0,0,1,1.08-5.67,19.16,19.16,0,0,1,2.83-5.06,15,15,0,0,1,4.12-3.64,9.39,9.39,0,0,1,4.93-1.42h55.62Zm0,49.68H114a9.79,9.79,0,0,1-4.93-1.35,14,14,0,0,1-4.12-3.58,19.38,19.38,0,0,1-2.83-5,15.36,15.36,0,0,1-1.08-5.61v-30.1h21.73v24.84h46.85Z"/><path class="cls-1" d="M192.16,431.56l1.48-4.6,8-25.11h38.48l25,79.52H232.53l-7.83-25.11h-8l-7.56,25.11H176.63Zm2.29-1.49-15.66,49.55H208l7.57-25h10.39l7.83,25h29l-24-76H202.69l-8.37,26.46Zm-11.74,46.85,14.17-45.63h25.79l-.94-4.05H198.1l6.75-20.93h32L259,476.92H235.77l-7.83-25H213.49l-7.56,25Z"/><path class="cls-1" d="M320,481.37,315.69,478q-1.21-5.26-2.76-10.13a63.08,63.08,0,0,0-4-9.58q-.94-2-4.86-2h-5.53v25.11H267.63V431.69h-5.8l7-29.84h60.07a14,14,0,0,1,6.76,1.76,19.89,19.89,0,0,1,5.67,4.59,22.44,22.44,0,0,1,3.84,6.41,19.38,19.38,0,0,1,1.42,7.22v14.32a15.24,15.24,0,0,1-.4,3.3,31,31,0,0,1-1.15,3.85,29,29,0,0,1-1.82,4,18,18,0,0,1-2.43,3.45,67.61,67.61,0,0,1,4.45,13.56q1.75,7.77,3,17.08Zm-2.56-4.05,2.83,2.3h25.93a155,155,0,0,0-2.84-16.13,72.28,72.28,0,0,0-4.45-13.44,14,14,0,0,0,2.49-3,24.2,24.2,0,0,0,2-3.78,22.65,22.65,0,0,0,1.22-3.78,15.24,15.24,0,0,0,.4-3.3V421.83a17,17,0,0,0-1.35-6.61,21.16,21.16,0,0,0-3.58-5.81,18.88,18.88,0,0,0-5.13-4.18,12.17,12.17,0,0,0-6-1.62H270.2L264,430.07h5.4v49.55h27.54v-25h7.15q5.26,0,6.48,3a65.73,65.73,0,0,1,4.05,9.93q1.49,4.79,2.84,9.92Zm2.7-.4-.14-.14q-1.35-5.4-2.9-10.46a69.35,69.35,0,0,0-4-10.06q-2-4.32-9.05-4.32h-10v25h-22V431.29h48.06v-4.05H267.49l4.87-20.93h56.56a10.05,10.05,0,0,1,5.07,1.35,14.92,14.92,0,0,1,4.18,3.58,18.25,18.25,0,0,1,2.91,5,15.3,15.3,0,0,1,1.08,5.6v14.32a16.31,16.31,0,0,1-.48,3.57,20.49,20.49,0,0,1-1.35,4,13.76,13.76,0,0,1-2.22,3.51,5,5,0,0,1-3,1.83A59.38,59.38,0,0,1,340.27,462a103.41,103.41,0,0,1,2.83,14.92Z"/><path class="cls-1" d="M431.4,481.37H370.64a13.61,13.61,0,0,1-6.68-1.75,20.31,20.31,0,0,1-5.6-4.59,22.7,22.7,0,0,1-3.85-6.41,19.63,19.63,0,0,1-1.42-7.23V422.1a20.09,20.09,0,0,1,1.42-7.29,22.39,22.39,0,0,1,3.85-6.48,21.28,21.28,0,0,1,5.6-4.65,13.18,13.18,0,0,1,6.68-1.83H431.4Zm-60.76-1.75h59v-76h-59a11.8,11.8,0,0,0-5.94,1.62,19,19,0,0,0-5.06,4.25,21.09,21.09,0,0,0-3.51,5.94,18.46,18.46,0,0,0-1.28,6.68v39.29a18,18,0,0,0,1.28,6.62,20.21,20.21,0,0,0,3.51,5.8A19.57,19.57,0,0,0,364.7,478,11.8,11.8,0,0,0,370.64,479.62Zm56.3-52.38H357.55V422.1a15.83,15.83,0,0,1,1.08-5.67,19.16,19.16,0,0,1,2.83-5.06,15.17,15.17,0,0,1,4.12-3.64,9.63,9.63,0,0,1,5.06-1.42h56.3Zm0,49.68h-56.3a10,10,0,0,1-5.06-1.35,14.16,14.16,0,0,1-4.12-3.58,19.38,19.38,0,0,1-2.83-5,15.36,15.36,0,0,1-1.08-5.61v-30.1h21.74V456h25.92v-4.05H389.28V431.29h37.66Zm-44.82-23.76V430.07h4.46v23.09Zm1.62-21.47v19.85h1.08V431.69Z"/><path class="cls-1" d="M505.72,403.61a20.2,20.2,0,0,1,5.61,4.59,22.44,22.44,0,0,1,3.84,6.41,19.38,19.38,0,0,1,1.42,7.22v39.29a19.89,19.89,0,0,1-1.42,7.29,22.14,22.14,0,0,1-3.84,6.48,21.2,21.2,0,0,1-5.61,4.66,13.37,13.37,0,0,1-6.81,1.82H455.43a13.17,13.17,0,0,1-6.68-1.82,21.16,21.16,0,0,1-5.6-4.66,22.17,22.17,0,0,1-3.85-6.48,19.89,19.89,0,0,1-1.42-7.29V421.83a19.38,19.38,0,0,1,1.42-7.22,22.47,22.47,0,0,1,3.85-6.41,20.16,20.16,0,0,1,5.6-4.59,13.62,13.62,0,0,1,6.68-1.76h43.48A13.82,13.82,0,0,1,505.72,403.61Zm-56.23,1.62a19.36,19.36,0,0,0-5.06,4.18,19.82,19.82,0,0,0-3.51,5.81,17.7,17.7,0,0,0-1.28,6.61v39.29a18.3,18.3,0,0,0,1.28,6.69,20.62,20.62,0,0,0,3.51,5.94,18.88,18.88,0,0,0,5.06,4.25,11.8,11.8,0,0,0,5.94,1.62h43.48a12.13,12.13,0,0,0,6-1.62,18.43,18.43,0,0,0,5.13-4.25,20.62,20.62,0,0,0,3.51-5.94,18.32,18.32,0,0,0,1.29-6.69V421.83a17.71,17.71,0,0,0-1.29-6.61,19.82,19.82,0,0,0-3.51-5.81,18.88,18.88,0,0,0-5.13-4.18,12.13,12.13,0,0,0-6-1.62H455.43A11.8,11.8,0,0,0,449.49,405.23ZM504,407.66a14.92,14.92,0,0,1,4.18,3.58,18.25,18.25,0,0,1,2.91,5,15.3,15.3,0,0,1,1.08,5.6v39.29a15.83,15.83,0,0,1-1.08,5.67,18.12,18.12,0,0,1-2.91,5.07A16,16,0,0,1,504,475.5a9.63,9.63,0,0,1-5.06,1.42H455.43a9.63,9.63,0,0,1-5.06-1.42,15,15,0,0,1-4.12-3.64,19.22,19.22,0,0,1-2.83-5.07,15.83,15.83,0,0,1-1.08-5.67V456H490.4V427.1H464.07v24.84H442.34V421.83a15.3,15.3,0,0,1,1.08-5.6,19.38,19.38,0,0,1,2.83-5,14,14,0,0,1,4.12-3.58,10,10,0,0,1,5.06-1.35h43.48A10,10,0,0,1,504,407.66Zm-16.4,22.14v23.36H466.91V429.8ZM486,451.54v-20H468.53v20Z"/><path class="cls-1" d="M155.69,520.34H119.24v15.54h36.45V559H109a10.51,10.51,0,0,1-5.2-1.37,15.06,15.06,0,0,1-4.31-3.57,18.49,18.49,0,0,1-2.94-5,15.27,15.27,0,0,1-1.1-5.62V512.88a15.65,15.65,0,0,1,1.1-5.67,18.23,18.23,0,0,1,2.94-5,15.75,15.75,0,0,1,4.31-3.62,10.25,10.25,0,0,1,5.2-1.42h46.74Zm-37.81-1.26h36.44V498.5H109a9.18,9.18,0,0,0-4.62,1.26,14,14,0,0,0-3.89,3.3,17.09,17.09,0,0,0-2.68,4.62,14.4,14.4,0,0,0-1,5.2v30.57a13.93,13.93,0,0,0,1,5.14,16.38,16.38,0,0,0,2.68,4.52,14.38,14.38,0,0,0,3.89,3.25,9.08,9.08,0,0,0,4.62,1.26h45.37V537.25H117.88Zm34.34-2.2H98.87v-4a12.31,12.31,0,0,1,.84-4.41,14.94,14.94,0,0,1,2.2-3.94,11.69,11.69,0,0,1,3.21-2.83,7.27,7.27,0,0,1,3.83-1.1h43.27Zm0,38.64H109a7.6,7.6,0,0,1-3.83-1,10.89,10.89,0,0,1-3.21-2.78,15,15,0,0,1-2.2-3.89,11.84,11.84,0,0,1-.84-4.35V520h16.91v19.32h36.44Z"/><path class="cls-1" d="M169.18,557.62a15.83,15.83,0,0,1-4.36-3.57,17.42,17.42,0,0,1-3-5,15.07,15.07,0,0,1-1.1-5.62V512.88a15.44,15.44,0,0,1,1.1-5.67,17.21,17.21,0,0,1,3-5,16.58,16.58,0,0,1,4.36-3.62,10.25,10.25,0,0,1,5.2-1.42H208.2a10.4,10.4,0,0,1,5.3,1.42,16.42,16.42,0,0,1,4.36,3.62,17.21,17.21,0,0,1,3,5,15.45,15.45,0,0,1,1.11,5.67v30.57a15.08,15.08,0,0,1-1.11,5.62,17.42,17.42,0,0,1-3,5,15.68,15.68,0,0,1-4.36,3.57,10.66,10.66,0,0,1-5.3,1.37H174.38A10.51,10.51,0,0,1,169.18,557.62Zm43.69-1.26a14.65,14.65,0,0,0,4-3.25,15.38,15.38,0,0,0,2.73-4.52,13.75,13.75,0,0,0,1-5.14V512.88a14.21,14.21,0,0,0-1-5.2,16,16,0,0,0-2.73-4.62,14.3,14.3,0,0,0-4-3.3,9.44,9.44,0,0,0-4.67-1.26H174.38a9.18,9.18,0,0,0-4.62,1.26,14.69,14.69,0,0,0-3.94,3.3,16,16,0,0,0-2.73,4.62,14.21,14.21,0,0,0-1,5.2v30.57a13.75,13.75,0,0,0,1,5.14,15.38,15.38,0,0,0,2.73,4.52,15.06,15.06,0,0,0,3.94,3.25,9.08,9.08,0,0,0,4.62,1.26H208.2A9.34,9.34,0,0,0,212.87,556.36Zm-42.43-1.89a11,11,0,0,1-3.2-2.78A15,15,0,0,1,165,547.8a11.84,11.84,0,0,1-.84-4.35V520H181.1v19.32h20.48V516.88H164.19v-4a12.31,12.31,0,0,1,.84-4.41,15,15,0,0,1,2.21-3.94,11.8,11.8,0,0,1,3.2-2.83,7.5,7.5,0,0,1,3.94-1.1H208.2a7.5,7.5,0,0,1,3.94,1.1,12.46,12.46,0,0,1,3.25,2.83,14.05,14.05,0,0,1,2.26,3.94,12.31,12.31,0,0,1,.84,4.41v30.57a11.84,11.84,0,0,1-.84,4.35,14.06,14.06,0,0,1-2.26,3.89,11.57,11.57,0,0,1-3.25,2.78,7.83,7.83,0,0,1-3.94,1H174.38A7.83,7.83,0,0,1,170.44,554.47Zm28.94-35.39v18.17H183.31V519.08Zm-1.26,16.8V520.34H184.57v15.54Z"/><path class="cls-1" d="M250.84,497.13v38.65h13.23V497.13h23.84v46.32a15.27,15.27,0,0,1-1.1,5.62,17.65,17.65,0,0,1-3,5,16,16,0,0,1-4.36,3.57,10.51,10.51,0,0,1-5.2,1.37H240.65a10.25,10.25,0,0,1-5.2-1.42,16.58,16.58,0,0,1-4.36-3.62,17.21,17.21,0,0,1-3-5,15.44,15.44,0,0,1-1.1-5.67V497.13Zm-1.26,1.37H228.36v44.74a14.21,14.21,0,0,0,1,5.2,16,16,0,0,0,2.73,4.62,14.69,14.69,0,0,0,3.94,3.3,9.08,9.08,0,0,0,4.62,1.26h33.61a9.34,9.34,0,0,0,4.67-1.26,14,14,0,0,0,3.94-3.25,16.38,16.38,0,0,0,2.68-4.52,14,14,0,0,0,1-5.14v-45H265.44V537H249.58Zm18,40.75V500.6h16.91v42.85a12,12,0,0,1-.84,4.35,15.28,15.28,0,0,1-2.21,3.89,10.71,10.71,0,0,1-3.26,2.78,7.89,7.89,0,0,1-3.88,1H240.65a7.5,7.5,0,0,1-3.94-1.1,11.8,11.8,0,0,1-3.2-2.83,15,15,0,0,1-2.21-3.94,12.31,12.31,0,0,1-.84-4.41v-4ZM247.37,500.6v35.49H230.46V500.6Z"/><path class="cls-1" d="M333.6,559l-3.37-2.63a82.18,82.18,0,0,0-2.36-8.08,59.87,59.87,0,0,0-3-7.25c-.49-1-1.75-1.57-3.78-1.57h-4.2V559H293V497.13h47.26a10.72,10.72,0,0,1,5.31,1.37,15.79,15.79,0,0,1,4.35,3.57,17.68,17.68,0,0,1,3,5,15.27,15.27,0,0,1,1.1,5.62v11.14a11.94,11.94,0,0,1-.31,2.57,22.64,22.64,0,0,1-.9,3,20.5,20.5,0,0,1-1.42,3.1,13.09,13.09,0,0,1-1.89,2.68,52.63,52.63,0,0,1,3.47,10.55q1.36,6,2.31,13.29Zm-2-3.15,2.21,1.78h19.85a121.06,121.06,0,0,0-2.21-12.55A56.64,56.64,0,0,0,348,534.62a9.89,9.89,0,0,0,1.89-2.36,22.4,22.4,0,0,0,1.47-2.94,17,17,0,0,0,1-2.94,12,12,0,0,0,.32-2.57V512.67a14,14,0,0,0-1-5.14,15.81,15.81,0,0,0-2.73-4.52,15,15,0,0,0-4-3.25,9.51,9.51,0,0,0-4.68-1.26H294.32v59.12h21.21V538.2h5.57c2.66,0,4.34.76,5,2.31a64.73,64.73,0,0,1,3,7.5q1.36,4.05,2.42,7.93Zm2.1-.32-.1-.1q-1.05-4.2-2.52-8.4c-1-2.8-2-5.32-3.05-7.56s-3.36-3.37-6.93-3.37h-7.67v19.43h-17V520h37.07v-3.15H296.42V500.6h43.79a7.8,7.8,0,0,1,3.94,1,11.6,11.6,0,0,1,3.26,2.78,14.28,14.28,0,0,1,2.25,3.89,11.84,11.84,0,0,1,.84,4.35v11.14a13.22,13.22,0,0,1-.36,2.78,17.39,17.39,0,0,1-1.05,3.15,12,12,0,0,1-1.68,2.73,3.72,3.72,0,0,1-2.26,1.42,47.28,47.28,0,0,1,3.83,10,96.17,96.17,0,0,1,2.26,11.6Z"/><path class="cls-1" d="M359,559V497.13h23.84V559Zm22.58-1.37V498.5H360.38v59.12Zm-19.11-2.1V500.6h16.91v54.92Z"/><path class="cls-1" d="M448.07,559H387.79V497.13h60.28ZM389.15,498.5v59.12h57.56V498.5Zm55.46,18.38H391.25V500.6h53.36Zm0,3.15v16.06H408.16v3.16h36.45v16.27H391.25V520Z"/><path class="cls-1" d="M493.76,559l-3.36-2.63a82.28,82.28,0,0,0-2.37-8.08,59.87,59.87,0,0,0-3-7.25c-.49-1-1.75-1.57-3.78-1.57h-4.2V559H453.11V497.13h47.26a10.72,10.72,0,0,1,5.31,1.37,15.83,15.83,0,0,1,4.36,3.57,17.65,17.65,0,0,1,3,5,15.27,15.27,0,0,1,1.1,5.62v11.14a11.94,11.94,0,0,1-.31,2.57,22.64,22.64,0,0,1-.9,3,21.46,21.46,0,0,1-1.41,3.1,13.91,13.91,0,0,1-1.89,2.68,52.65,52.65,0,0,1,3.46,10.55q1.36,6,2.31,13.29Zm-2-3.15,2.21,1.78h19.85a121.06,121.06,0,0,0-2.21-12.55,56.65,56.65,0,0,0-3.46-10.45,9.89,9.89,0,0,0,1.89-2.36,22.4,22.4,0,0,0,1.47-2.94,17.79,17.79,0,0,0,.94-2.94,12,12,0,0,0,.32-2.57V512.67a14,14,0,0,0-1-5.14A15.81,15.81,0,0,0,509,503a15,15,0,0,0-4-3.25,9.51,9.51,0,0,0-4.68-1.26H454.48v59.12h21.21V538.2h5.57c2.66,0,4.34.76,5,2.31a64.73,64.73,0,0,1,3.05,7.5q1.36,4.05,2.41,7.93Zm2.1-.32-.1-.1q-1-4.2-2.52-8.4a80.6,80.6,0,0,0-3.05-7.56q-1.57-3.37-6.93-3.37h-7.67v19.43h-17V520h37.07v-3.15H456.58V500.6h43.79a7.8,7.8,0,0,1,3.94,1,11.6,11.6,0,0,1,3.26,2.78,14.31,14.31,0,0,1,2.26,3.89,11.84,11.84,0,0,1,.84,4.35v11.14a13.32,13.32,0,0,1-.37,2.78,17.39,17.39,0,0,1-1.05,3.15,12,12,0,0,1-1.68,2.73,3.72,3.72,0,0,1-2.26,1.42,47.28,47.28,0,0,1,3.83,10,96.17,96.17,0,0,1,2.26,11.6Z"/></svg>