<?xml version="1.0" encoding="utf-8"?>
<!-- Generator: Adobe Illustrator 26.0.3, SVG Export Plug-In . SVG Version: 6.00 Build 0)  -->
<svg version="1.1" id="Слой_1" xmlns="http://www.w3.org/2000/svg" xmlns:xlink="http://www.w3.org/1999/xlink" x="0px" y="0px"
	 viewBox="0 0 595.3 841.9" style="enable-background:new 0 0 595.3 841.9;" xml:space="preserve">
<style type="text/css">
	.st0{enable-background:new    ;}
	.st1{fill:#FFFFFF;}
</style>
<path d="M402.3,424.1c32-4.4,34.8-7,34.8-31.3c0.1-46.4-0.6-92.7,0.4-139.1c0.3-15-5.3-22.4-21-28c-67.8-24.3-135.1-49.8-202.6-75
	c-6.1-2.3-11.8-5.1-22.9-10c19.8-7.7,36.2-12.3,50.5-20.1c36.7-19.9,72.4-19.9,109.3-0.6c14.7,7.7,31.2,12.5,52.4,20.8l-74.7,29.6
	c16.4,10.3,30.8,15.7,47.4,5.8c43.4-25.8,84.4-18.2,129.6,0.3c30.9,12.7,39.6,26.5,39.2,55.9c-2,142.6-1,285.3-1.2,428
	c0,54.1-23.9,75.5-84,75.5c-110.7,0-221.3,0-332,0c-51.1-0.1-76.6-23-76.7-68.9c-0.1-151.1,0.2-302.2-0.4-453.3
	c-0.1-15.5,4.5-24.2,21.4-29.5c24-7.4,46.9-17.9,70.9-25.5c7.9-2.5,18.7-2.4,26.4,0.4c72.1,26.2,143.7,53.5,215.7,79.7
	c13.7,5,17.7,12.1,17.5,24.5c-0.6,47-0.2,93.9-0.2,140.9L402.3,424.1z M192.2,425.3v-21c0-46.9,0.5-93.7-0.3-140.6
	c-0.2-13.6,4.8-20.9,18.9-25.4c18.5-5.9,36.4-13.4,57.1-21.1c-18.4-11.5-33.6-14.9-51.4-6.6c-13.2,6-26.8,11.1-40.7,15.1
	c-14.3,4.3-19.2,12.2-19,25.6c0.7,46.2,0.2,92.5,0.2,138.7C157,417.1,158.1,418.3,192.2,425.3L192.2,425.3z"/>
<g class="st0">
	<path class="st1" d="M174.1,520.3h-46.8v20h46.8V570H114c-2.3,0-4.6-0.6-6.7-1.8s-4-2.7-5.5-4.6c-1.6-1.9-2.8-4-3.8-6.4
		c-0.9-2.4-1.4-4.8-1.4-7.2v-39.3c0-2.4,0.5-4.9,1.4-7.3c0.9-2.4,2.2-4.6,3.8-6.5c1.6-1.9,3.4-3.4,5.5-4.7s4.3-1.8,6.7-1.8h60.1
		V520.3z M125.5,518.7h46.8v-26.5H114c-2.1,0-4.1,0.5-5.9,1.6s-3.6,2.5-5,4.3c-1.4,1.8-2.6,3.7-3.4,5.9s-1.3,4.4-1.3,6.7V550
		c0,2.2,0.4,4.5,1.3,6.6s2,4.1,3.4,5.8c1.4,1.7,3.1,3.1,5,4.2s3.9,1.6,5.9,1.6h58.3V542h-46.8V518.7z M169.6,515.8H101v-5.1
		c0-1.9,0.4-3.8,1.1-5.7c0.7-1.9,1.7-3.6,2.8-5.1c1.2-1.5,2.5-2.7,4.1-3.6c1.6-0.9,3.2-1.4,4.9-1.4h55.6V515.8z M169.6,565.5H114
		c-1.7,0-3.4-0.5-4.9-1.4c-1.6-0.9-2.9-2.1-4.1-3.6c-1.2-1.5-2.1-3.2-2.8-5c-0.7-1.8-1.1-3.7-1.1-5.6v-30.1h21.7v24.8h46.8V565.5z"
		/>
	<path class="st1" d="M192.2,520.2l1.5-4.6l8-25.1h38.5l25,79.5h-32.5l-7.8-25.1h-8l-7.6,25.1h-32.5L192.2,520.2z M194.5,518.7
		l-15.7,49.5H208l7.6-25h10.4l7.8,25h29l-24-76h-36l-8.4,26.5H194.5z M182.7,565.5l14.2-45.6h25.8l-0.9-4h-23.6l6.8-20.9h32
		l22.1,70.6h-23.2l-7.8-25h-14.4l-7.6,25H182.7z"/>
	<path class="st1" d="M320,570l-4.3-3.4c-0.8-3.5-1.7-6.9-2.8-10.1s-2.4-6.4-4-9.6c-0.6-1.3-2.2-2-4.9-2h-5.5V570h-30.9v-49.7h-5.8
		l7-29.8h60.1c2.3,0,4.6,0.6,6.8,1.8s4.1,2.7,5.7,4.6c1.6,1.9,2.9,4,3.8,6.4c0.9,2.4,1.4,4.8,1.4,7.2v14.3c0,1-0.1,2.1-0.4,3.3
		c-0.3,1.2-0.7,2.5-1.1,3.8c-0.5,1.3-1.1,2.7-1.8,4c-0.7,1.3-1.5,2.5-2.4,3.4c1.8,3.9,3.3,8.4,4.5,13.6c1.2,5.2,2.2,10.9,3,17.1H320
		z M317.4,565.9l2.8,2.3h25.9c-0.7-5.8-1.7-11.1-2.8-16.1s-2.7-9.5-4.5-13.4c0.9-0.8,1.7-1.8,2.5-3c0.8-1.2,1.4-2.5,2-3.8
		c0.5-1.3,0.9-2.6,1.2-3.8c0.3-1.2,0.4-2.3,0.4-3.3v-14.3c0-2.2-0.5-4.5-1.4-6.6c-0.9-2.2-2.1-4.1-3.6-5.8c-1.5-1.7-3.2-3.1-5.1-4.2
		c-1.9-1.1-3.9-1.6-6-1.6h-58.7l-6.2,26.5h5.4v49.5h27.5v-25h7.2c3.5,0,5.7,1,6.5,3c1.7,3.4,3.1,6.7,4,9.9c1,3.2,1.9,6.5,2.8,9.9
		V565.9z M320.1,565.5l-0.1-0.1c-0.9-3.6-1.9-7.1-2.9-10.5s-2.4-6.7-4-10.1c-1.4-2.9-4.4-4.3-9-4.3h-10v25h-22v-45.6h48.1v-4h-52.7
		l4.9-20.9h56.6c1.8,0,3.5,0.5,5.1,1.4c1.6,0.9,3,2.1,4.2,3.6s2.2,3.2,2.9,5c0.7,1.8,1.1,3.7,1.1,5.6v14.3c0,1-0.2,2.2-0.5,3.6
		c-0.3,1.4-0.8,2.7-1.4,4c-0.6,1.3-1.3,2.5-2.2,3.5s-1.9,1.6-3,1.8c2.2,4,3.9,8.3,5.1,12.9c1.3,4.6,2.2,9.6,2.8,14.9H320.1z"/>
	<path class="st1" d="M431.4,570h-60.8c-2.3,0-4.6-0.6-6.7-1.8s-4-2.7-5.6-4.6c-1.6-1.9-2.9-4-3.8-6.4c-0.9-2.4-1.4-4.8-1.4-7.2
		v-39.3c0-2.4,0.5-4.9,1.4-7.3c0.9-2.4,2.2-4.6,3.8-6.5c1.6-1.9,3.5-3.4,5.6-4.7s4.3-1.8,6.7-1.8h60.8V570z M370.6,568.2h59v-76h-59
		c-2.1,0-4.1,0.5-5.9,1.6c-1.9,1.1-3.6,2.5-5.1,4.3c-1.5,1.8-2.7,3.7-3.5,5.9c-0.9,2.2-1.3,4.4-1.3,6.7V550c0,2.2,0.4,4.5,1.3,6.6
		c0.9,2.2,2,4.1,3.5,5.8c1.5,1.7,3.2,3.1,5.1,4.2C366.6,567.7,368.6,568.2,370.6,568.2z M426.9,515.8h-69.4v-5.1
		c0-1.9,0.4-3.8,1.1-5.7c0.7-1.9,1.7-3.6,2.8-5.1c1.2-1.5,2.5-2.7,4.1-3.6c1.6-0.9,3.3-1.4,5.1-1.4h56.3V515.8z M426.9,565.5h-56.3
		c-1.8,0-3.5-0.5-5.1-1.4c-1.6-0.9-2.9-2.1-4.1-3.6c-1.2-1.5-2.1-3.2-2.8-5c-0.7-1.8-1.1-3.7-1.1-5.6v-30.1h21.7v24.7h25.9v-4h-15.9
		v-20.7h37.7V565.5z M382.1,541.8v-23.1h4.5v23.1H382.1z M383.7,520.3v19.8h1.1v-19.8H383.7z"/>
	<path class="st1" d="M505.7,492.2c2.1,1.2,4,2.7,5.6,4.6c1.6,1.9,2.9,4,3.8,6.4c0.9,2.4,1.4,4.8,1.4,7.2v39.3
		c0,2.4-0.5,4.9-1.4,7.3c-0.9,2.4-2.2,4.6-3.8,6.5s-3.5,3.4-5.6,4.7c-2.1,1.2-4.4,1.8-6.8,1.8h-43.5c-2.3,0-4.6-0.6-6.7-1.8
		c-2.1-1.2-4-2.8-5.6-4.7s-2.9-4.1-3.8-6.5s-1.4-4.9-1.4-7.3v-39.3c0-2.4,0.5-4.8,1.4-7.2c0.9-2.4,2.2-4.5,3.8-6.4
		c1.6-1.9,3.5-3.4,5.6-4.6s4.3-1.8,6.7-1.8h43.5C501.3,490.4,503.6,491,505.7,492.2z M449.5,493.8c-1.9,1.1-3.6,2.5-5.1,4.2
		c-1.5,1.7-2.7,3.6-3.5,5.8c-0.9,2.2-1.3,4.4-1.3,6.6v39.3c0,2.3,0.4,4.5,1.3,6.7c0.9,2.2,2,4.2,3.5,5.9c1.5,1.8,3.2,3.2,5.1,4.3
		c1.9,1.1,3.9,1.6,5.9,1.6h43.5c2.1,0,4.1-0.5,6-1.6c1.9-1.1,3.6-2.5,5.1-4.3s2.7-3.7,3.5-5.9c0.9-2.2,1.3-4.4,1.3-6.7v-39.3
		c0-2.2-0.4-4.5-1.3-6.6c-0.9-2.2-2-4.1-3.5-5.8s-3.2-3.1-5.1-4.2c-1.9-1.1-3.9-1.6-6-1.6h-43.5
		C453.4,492.2,451.4,492.7,449.5,493.8z M504,496.3c1.6,0.9,3,2.1,4.2,3.6c1.2,1.5,2.2,3.2,2.9,5c0.7,1.8,1.1,3.7,1.1,5.6v39.3
		c0,1.9-0.4,3.8-1.1,5.7s-1.7,3.6-2.9,5.1c-1.2,1.5-2.6,2.7-4.2,3.6s-3.3,1.4-5.1,1.4h-43.5c-1.8,0-3.5-0.5-5.1-1.4
		s-2.9-2.2-4.1-3.6c-1.2-1.5-2.1-3.2-2.8-5.1c-0.7-1.9-1.1-3.8-1.1-5.7v-5.1h48.1v-28.9h-26.3v24.8h-21.7v-30.1
		c0-1.9,0.4-3.8,1.1-5.6c0.7-1.8,1.7-3.5,2.8-5s2.5-2.7,4.1-3.6c1.6-0.9,3.3-1.4,5.1-1.4h43.5C500.7,494.9,502.4,495.4,504,496.3z
		 M487.6,518.4v23.4h-20.7v-23.4H487.6z M485.9,540.1v-20h-17.4v20H485.9z"/>
</g>
<g class="st0">
	<path class="st1" d="M155.7,608.9h-36.4v15.5h36.4v23.1H109c-1.8,0-3.6-0.5-5.2-1.4c-1.6-0.9-3.1-2.1-4.3-3.6
		c-1.2-1.5-2.2-3.1-2.9-5c-0.7-1.9-1.1-3.7-1.1-5.6v-30.6c0-1.9,0.4-3.8,1.1-5.7c0.7-1.9,1.7-3.6,2.9-5c1.2-1.5,2.7-2.7,4.3-3.6
		c1.6-0.9,3.4-1.4,5.2-1.4h46.7V608.9z M117.9,607.7h36.4v-20.6H109c-1.6,0-3.2,0.4-4.6,1.3c-1.5,0.8-2.8,1.9-3.9,3.3
		c-1.1,1.4-2,2.9-2.7,4.6c-0.7,1.7-1,3.4-1,5.2V632c0,1.8,0.3,3.5,1,5.1c0.7,1.7,1.6,3.2,2.7,4.5c1.1,1.3,2.4,2.4,3.9,3.3
		c1.5,0.8,3,1.3,4.6,1.3h45.4v-20.4h-36.4V607.7z M152.2,605.5H98.9v-4c0-1.5,0.3-2.9,0.8-4.4c0.6-1.5,1.3-2.8,2.2-3.9
		c0.9-1.2,2-2.1,3.2-2.8c1.2-0.7,2.5-1.1,3.8-1.1h43.3V605.5z M152.2,644.1H109c-1.3,0-2.6-0.4-3.8-1.1c-1.2-0.7-2.3-1.6-3.2-2.8
		c-0.9-1.2-1.6-2.5-2.2-3.9c-0.6-1.4-0.8-2.9-0.8-4.4v-23.4h16.9V628h36.4V644.1z"/>
	<path class="st1" d="M169.2,646.2c-1.6-0.9-3.1-2.1-4.4-3.6c-1.3-1.5-2.3-3.1-3-5c-0.7-1.9-1.1-3.7-1.1-5.6v-30.6
		c0-1.9,0.4-3.8,1.1-5.7c0.7-1.9,1.7-3.6,3-5s2.7-2.7,4.4-3.6s3.4-1.4,5.2-1.4h33.8c1.9,0,3.7,0.5,5.3,1.4s3.1,2.2,4.4,3.6
		s2.3,3.2,3,5c0.7,1.9,1.1,3.8,1.1,5.7V632c0,1.9-0.4,3.8-1.1,5.6s-1.7,3.5-3,5c-1.3,1.5-2.7,2.7-4.4,3.6s-3.4,1.4-5.3,1.4h-33.8
		C172.6,647.6,170.8,647.1,169.2,646.2z M212.9,645c1.5-0.8,2.8-1.9,4-3.3c1.2-1.3,2.1-2.8,2.7-4.5c0.7-1.7,1-3.4,1-5.1v-30.6
		c0-1.8-0.3-3.5-1-5.2c-0.7-1.7-1.6-3.3-2.7-4.6s-2.5-2.5-4-3.3c-1.5-0.8-3.1-1.3-4.7-1.3h-33.8c-1.6,0-3.2,0.4-4.6,1.3
		c-1.5,0.8-2.8,1.9-3.9,3.3s-2.1,2.9-2.7,4.6c-0.7,1.7-1,3.4-1,5.2V632c0,1.8,0.3,3.5,1,5.1c0.7,1.7,1.6,3.2,2.7,4.5
		c1.2,1.3,2.5,2.4,3.9,3.3c1.5,0.8,3,1.3,4.6,1.3h33.8C209.8,646.2,211.4,645.8,212.9,645z M170.4,643.1c-1.2-0.7-2.3-1.6-3.2-2.8
		c-0.9-1.2-1.6-2.5-2.2-3.9c-0.6-1.4-0.8-2.9-0.8-4.4v-23.4h16.9V628h20.5v-22.5h-37.4v-4c0-1.5,0.3-2.9,0.8-4.4
		c0.6-1.5,1.3-2.8,2.2-3.9c0.9-1.2,2-2.1,3.2-2.8c1.2-0.7,2.5-1.1,3.9-1.1h33.8c1.4,0,2.7,0.4,3.9,1.1s2.3,1.7,3.3,2.8
		s1.7,2.5,2.3,3.9c0.6,1.5,0.8,2.9,0.8,4.4V632c0,1.5-0.3,2.9-0.8,4.4c-0.6,1.4-1.3,2.7-2.3,3.9s-2,2.1-3.3,2.8s-2.5,1.1-3.9,1.1
		h-33.8C173,644.1,171.7,643.8,170.4,643.1z M199.4,607.7v18.2h-16.1v-18.2H199.4z M198.1,624.5v-15.5h-13.5v15.5H198.1z"/>
	<path class="st1" d="M250.8,585.7v38.6h13.2v-38.6h23.8V632c0,1.9-0.4,3.8-1.1,5.6c-0.7,1.9-1.7,3.5-3,5c-1.3,1.5-2.7,2.7-4.4,3.6
		s-3.4,1.4-5.2,1.4h-33.6c-1.8,0-3.6-0.5-5.2-1.4s-3.1-2.2-4.4-3.6c-1.3-1.5-2.3-3.2-3-5c-0.7-1.9-1.1-3.8-1.1-5.7v-46.1H250.8z
		 M249.6,587.1h-21.2v44.7c0,1.8,0.3,3.5,1,5.2c0.7,1.7,1.6,3.3,2.7,4.6c1.2,1.4,2.5,2.5,3.9,3.3c1.5,0.8,3,1.3,4.6,1.3h33.6
		c1.6,0,3.2-0.4,4.7-1.3c1.5-0.8,2.8-1.9,3.9-3.3c1.1-1.3,2-2.8,2.7-4.5c0.7-1.7,1-3.4,1-5.1v-45h-21.1v38.5h-15.9V587.1z
		 M267.5,627.8v-38.6h16.9V632c0,1.5-0.3,2.9-0.8,4.4s-1.3,2.7-2.2,3.9s-2,2.1-3.3,2.8s-2.6,1.1-3.9,1.1h-33.6
		c-1.4,0-2.7-0.4-3.9-1.1c-1.2-0.7-2.3-1.7-3.2-2.8c-0.9-1.2-1.6-2.5-2.2-3.9c-0.6-1.5-0.8-2.9-0.8-4.4v-4H267.5z M247.4,589.2v35.5
		h-16.9v-35.5H247.4z"/>
	<path class="st1" d="M333.6,647.6l-3.4-2.6c-0.6-2.7-1.4-5.4-2.4-8.1s-1.9-5.1-3-7.2c-0.5-1-1.8-1.6-3.8-1.6h-4.2v19.5H293v-61.9
		h47.3c1.9,0,3.7,0.5,5.3,1.4s3.1,2.1,4.4,3.6c1.3,1.5,2.3,3.1,3,5s1.1,3.7,1.1,5.6v11.1c0,0.8-0.1,1.6-0.3,2.6s-0.5,1.9-0.9,3
		c-0.4,1-0.9,2.1-1.4,3.1c-0.6,1-1.2,1.9-1.9,2.7c1.4,3,2.6,6.5,3.5,10.6c0.9,4,1.7,8.5,2.3,13.3H333.6z M331.6,644.4l2.2,1.8h19.9
		c-0.6-4.5-1.3-8.7-2.2-12.6s-2.1-7.4-3.5-10.5c0.7-0.6,1.3-1.4,1.9-2.4s1-1.9,1.5-2.9c0.4-1,0.7-2,0.9-2.9c0.2-0.9,0.3-1.8,0.3-2.6
		v-11.1c0-1.8-0.3-3.5-1-5.1c-0.7-1.7-1.6-3.2-2.7-4.5c-1.2-1.3-2.5-2.4-4-3.3c-1.5-0.8-3.1-1.3-4.7-1.3h-45.9v59.1h21.2v-19.4h5.6
		c2.7,0,4.3,0.8,5,2.3c1.1,2.3,2.1,4.8,3,7.5c0.9,2.7,1.7,5.3,2.4,7.9V644.4z M333.7,644.1l-0.1-0.1c-0.7-2.8-1.5-5.6-2.5-8.4
		s-2-5.3-3-7.6c-1-2.2-3.4-3.4-6.9-3.4h-7.7v19.4h-17v-35.5h37.1v-3.2h-37.1v-16.3h43.8c1.4,0,2.7,0.3,3.9,1
		c1.2,0.7,2.3,1.6,3.3,2.8s1.7,2.5,2.3,3.9c0.6,1.4,0.8,2.9,0.8,4.4v11.1c0,0.8-0.1,1.7-0.4,2.8c-0.2,1.1-0.6,2.1-1.1,3.2
		c-0.5,1-1,1.9-1.7,2.7c-0.7,0.8-1.4,1.3-2.3,1.4c1.6,3.1,2.9,6.4,3.8,10s1.7,7.5,2.3,11.6H333.7z"/>
	<path class="st1" d="M359,647.6v-61.9h23.8v61.9H359z M381.6,646.2v-59.1h-21.2v59.1H381.6z M362.5,644.1v-54.9h16.9v54.9H362.5z"
		/>
	<path class="st1" d="M448.1,647.6h-60.3v-61.9h60.3V647.6z M389.2,587.1v59.1h57.6v-59.1H389.2z M444.6,605.5h-53.4v-16.3h53.4
		V605.5z M444.6,608.6v16.1h-36.4v3.2h36.4v16.3h-53.4v-35.5H444.6z"/>
	<path class="st1" d="M493.8,647.6l-3.4-2.6c-0.6-2.7-1.4-5.4-2.4-8.1s-1.9-5.1-3-7.2c-0.5-1-1.8-1.6-3.8-1.6h-4.2v19.5h-23.9v-61.9
		h47.3c1.9,0,3.7,0.5,5.3,1.4s3.1,2.1,4.4,3.6c1.3,1.5,2.3,3.1,3,5c0.7,1.9,1.1,3.7,1.1,5.6v11.1c0,0.8-0.1,1.6-0.3,2.6
		s-0.5,1.9-0.9,3c-0.4,1-0.9,2.1-1.4,3.1c-0.6,1-1.2,1.9-1.9,2.7c1.4,3,2.6,6.5,3.5,10.6c0.9,4,1.7,8.5,2.3,13.3H493.8z
		 M491.8,644.4l2.2,1.8h19.8c-0.6-4.5-1.3-8.7-2.2-12.6s-2.1-7.4-3.5-10.5c0.7-0.6,1.3-1.4,1.9-2.4c0.6-0.9,1.1-1.9,1.5-2.9
		s0.7-2,0.9-2.9s0.3-1.8,0.3-2.6v-11.1c0-1.8-0.3-3.5-1-5.1s-1.6-3.2-2.7-4.5c-1.2-1.3-2.5-2.4-4-3.3c-1.5-0.8-3.1-1.3-4.7-1.3
		h-45.9v59.1h21.2v-19.4h5.6c2.7,0,4.3,0.8,5,2.3c1.1,2.3,2.1,4.8,3,7.5c0.9,2.7,1.7,5.3,2.4,7.9V644.4z M493.9,644.1l-0.1-0.1
		c-0.7-2.8-1.5-5.6-2.5-8.4c-1-2.8-2-5.3-3-7.6c-1.1-2.2-3.4-3.4-6.9-3.4h-7.7v19.4h-17v-35.5h37.1v-3.2h-37.1v-16.3h43.8
		c1.4,0,2.7,0.3,3.9,1s2.3,1.6,3.3,2.8s1.7,2.5,2.3,3.9c0.6,1.4,0.8,2.9,0.8,4.4v11.1c0,0.8-0.1,1.7-0.4,2.8c-0.2,1.1-0.6,2.1-1,3.2
		c-0.5,1-1,1.9-1.7,2.7c-0.7,0.8-1.4,1.3-2.3,1.4c1.6,3.1,2.9,6.4,3.8,10s1.7,7.5,2.3,11.6H493.9z"/>
</g>
</svg>
